<svg xmlns="http://www.w3.org/2000/svg" xmlns:xlink="http://www.w3.org/1999/xlink" width="1080" zoomAndPan="magnify" viewBox="0 0 810 809.999993" height="1080" preserveAspectRatio="xMidYMid meet" version="1.0"><defs><clipPath id="27ef929186"><path d="M 409 160.414062 L 681.753906 160.414062 L 681.753906 300 L 409 300 Z M 409 160.414062 " clip-rule="nonzero"/></clipPath><clipPath id="d6e655afc1"><path d="M 128.253906 173 L 410 173 L 410 300 L 128.253906 300 Z M 128.253906 173 " clip-rule="nonzero"/></clipPath><clipPath id="3ba1c9f325"><path d="M 210 404 L 407 404 L 407 649.414062 L 210 649.414062 Z M 210 404 " clip-rule="nonzero"/></clipPath><clipPath id="806ff2bec6"><path d="M 412 404 L 609 404 L 609 649.414062 L 412 649.414062 Z M 412 404 " clip-rule="nonzero"/></clipPath></defs><g clip-path="url(#27ef929186)"><path fill="#5858e0" d="M 608.164062 299.605469 L 409.550781 227.003906 L 481.277344 160.484375 L 681.730469 233.671875 L 608.164062 299.605469 " fill-opacity="1" fill-rule="nonzero"/></g><g clip-path="url(#d6e655afc1)"><path fill="#5858e0" d="M 210.839844 299.554688 L 409.554688 227 L 326.953125 173.148438 L 128.242188 245.722656 L 210.839844 299.554688 " fill-opacity="1" fill-rule="nonzero"/></g><g clip-path="url(#3ba1c9f325)"><path fill="#5858e0" d="M 349.648438 494.5625 L 210.839844 426.078125 L 210.839844 557.332031 L 406.089844 649.511719 L 406.089844 404.714844 L 349.648438 494.5625 " fill-opacity="1" fill-rule="nonzero"/></g><path fill="#5858e0" d="M 406.089844 391.785156 L 210.839844 299.609375 L 151.867188 389.316406 L 347.136719 485.664062 L 406.089844 391.785156 " fill-opacity="1" fill-rule="nonzero"/><path fill="#5858e0" d="M 412.992188 391.785156 L 608.222656 299.609375 L 667.214844 389.316406 L 471.964844 485.664062 L 412.992188 391.785156 " fill-opacity="1" fill-rule="nonzero"/><g clip-path="url(#806ff2bec6)"><path fill="#5858e0" d="M 469.4375 494.5625 L 412.992188 404.714844 L 412.992188 649.511719 L 608.226562 557.332031 L 608.226562 426.078125 L 469.4375 494.5625 " fill-opacity="1" fill-rule="nonzero"/></g></svg>