<svg xmlns="http://www.w3.org/2000/svg" xmlns:xlink="http://www.w3.org/1999/xlink" width="1080" zoomAndPan="magnify" viewBox="0 0 810 809.999993" height="1080" preserveAspectRatio="xMidYMid meet" version="1.0"><path fill="#5858e0" d="M 272.105469 348.878906 C 271.160156 350.433594 269.976562 351.902344 267.417969 351.871094 L 243.488281 351.5625 C 240.933594 351.535156 238.042969 350.039062 238.878906 348.457031 C 241.878906 342.804688 275.566406 343.167969 272.105469 348.878906 Z M 423.578125 355.519531 C 422.636719 357.070312 421.445312 358.542969 418.890625 358.511719 L 394.964844 358.203125 C 392.402344 358.175781 389.519531 356.679688 390.355469 355.097656 C 393.347656 349.4375 427.039062 349.808594 423.578125 355.519531 Z M 387.019531 283.691406 L 391.476562 333.496094 L 522.503906 338.78125 C 522.503906 338.78125 523.324219 330.800781 508.5625 321.175781 C 493.789062 311.550781 453.179688 277.988281 387.019531 283.691406 Z M 363.085938 281.207031 L 361.714844 332.027344 L 239.761719 327.222656 C 239.761719 327.222656 235.152344 318.449219 251.703125 301.953125 C 268.253906 285.457031 265.027344 282.144531 279.554688 281.964844 C 294.082031 281.785156 326.066406 279.285156 363.085938 281.207031 Z M 255.933594 283.121094 C 255.933594 283.121094 226.175781 310.347656 224.644531 316.859375 C 223.105469 323.375 222.347656 325.910156 222.347656 325.910156 C 222.347656 325.910156 167.941406 320.863281 164.328125 319.367188 C 160.71875 317.871094 161.101562 316.054688 165.152344 311.753906 C 169.203125 307.445312 179.71875 279.976562 255.933594 283.121094 Z M 132.054688 287 C 132.054688 287 133.195312 283.203125 140.660156 281.664062 C 148.121094 280.121094 161.019531 279.5625 163.207031 279.226562 C 165.386719 278.890625 167.933594 278.191406 167.933594 278.191406 C 167.933594 278.191406 168.523438 274.753906 173.066406 274.628906 C 177.609375 274.503906 264.996094 270.164062 280.980469 269.640625 C 296.964844 269.113281 397.199219 268.386719 412.960938 271.304688 C 428.722656 274.226562 436.867188 276.328125 438.855469 277.082031 C 440.835938 277.832031 442.097656 278.757812 442.097656 278.757812 C 442.097656 278.757812 453.515625 280.347656 471.382812 288.929688 C 489.246094 297.503906 515.933594 312.371094 531.265625 320.738281 C 546.59375 329.101562 555.074219 333.019531 573.929688 335.253906 C 592.785156 337.492188 658.25 343.765625 674.722656 347.785156 C 691.191406 351.804688 710.222656 354.773438 716.257812 365.921875 C 722.285156 377.074219 721.257812 372.15625 722.285156 377.074219 C 723.3125 381.988281 723.019531 390.882812 723.191406 391.796875 C 723.359375 392.703125 723.398438 389.800781 725.664062 397.269531 C 727.925781 404.746094 731.664062 410.785156 732.921875 412.070312 C 734.175781 413.355469 734.8125 420.261719 734.8125 420.261719 C 734.8125 420.261719 734.441406 420.988281 736.050781 422.820312 C 737.664062 424.660156 737.585938 430.652344 737.558594 432.828125 C 737.535156 435.007812 738.457031 448.089844 733.132812 452.929688 C 727.800781 457.757812 722.292969 462.957031 720.476562 462.933594 C 718.660156 462.910156 696.691406 463 696.691406 463 C 696.691406 463 704.839844 392.828125 635.402344 384.511719 C 565.96875 376.191406 557.230469 435.632812 556.628906 454.328125 C 556.027344 473.023438 556.621094 483.195312 553.929688 480.804688 C 551.238281 478.40625 550.152344 463.871094 550.152344 463.871094 L 546.160156 463.636719 C 546.160156 463.636719 546.886719 477.804688 545.066406 478.328125 C 543.246094 478.851562 512.917969 479.375 511.46875 478.996094 C 510.019531 478.609375 510.71875 480.617188 508.183594 480.40625 C 505.648438 480.191406 297.074219 475.917969 297.074219 475.917969 C 297.074219 475.917969 296.886719 476.644531 295.449219 474.992188 C 294.019531 473.339844 276.761719 474.03125 276.761719 474.03125 C 276.761719 474.03125 275.855469 474.199219 275.53125 471.292969 C 275.199219 468.382812 275.335938 457.667969 275.335938 457.667969 C 275.335938 457.667969 274.070312 457.109375 273.011719 455.097656 C 271.941406 453.089844 269.707031 385.882812 204.175781 384.6875 C 138.644531 383.496094 132.941406 446.792969 132.695312 451.691406 C 132.457031 456.59375 132.199219 462.578125 132.199219 462.578125 C 132.199219 462.578125 108.515625 454.652344 97.441406 454.152344 C 86.371094 453.648438 83.488281 451.976562 82.605469 450.511719 C 81.707031 449.050781 74.347656 442.605469 74.035156 438.601562 C 73.722656 434.605469 72.273438 419.878906 73.554688 419.355469 C 74.828125 418.824219 71.625 413.699219 74.953125 409.019531 C 78.285156 404.34375 83.945312 401.507812 83.089844 397.320312 C 82.238281 393.136719 83.277344 382.800781 83.671875 379.71875 C 84.074219 376.636719 85.308594 365.757812 84.605469 363.570312 C 83.90625 361.382812 80.886719 356.257812 83.660156 352.296875 C 86.433594 348.335938 103.773438 326.949219 103.773438 326.949219 L 134.859375 295.203125 C 134.859375 295.203125 125.640625 291.820312 132.054688 287 " fill-opacity="1" fill-rule="evenodd"/><path fill="#5858e0" d="M 179.148438 434.503906 C 196.105469 421.949219 219.445312 424.199219 233.742188 438.933594 L 233.773438 438.910156 C 233.773438 438.910156 234.515625 439.664062 235.621094 441.003906 C 236.222656 441.714844 236.804688 442.441406 237.367188 443.203125 C 238.96875 445.367188 240.332031 447.644531 241.457031 449.988281 C 242.300781 451.703125 243.0625 453.566406 243.640625 455.519531 C 248.792969 471.972656 243.308594 490.585938 228.664062 501.421875 C 210.1875 515.097656 184.117188 511.199219 170.445312 492.722656 C 156.769531 474.242188 160.664062 448.175781 179.148438 434.503906 Z M 212.726562 503.371094 L 210.59375 483.375 L 203.894531 474.832031 L 196.285156 483.359375 L 195.035156 503.421875 C 195.035156 503.421875 204.109375 505.761719 212.726562 503.371094 Z M 168.714844 458.1875 L 187.160156 466.195312 L 197.902344 464.578125 L 194.238281 453.757812 L 177.398438 442.773438 C 177.398438 442.773438 170.890625 449.515625 168.714844 458.1875 Z M 230.316406 493.125 L 213.976562 481.40625 L 209.855469 471.359375 L 221.019531 468.949219 L 239.089844 477.765625 C 239.089844 477.765625 236.644531 486.808594 230.316406 493.125 Z M 177.734375 493.425781 L 193.941406 481.527344 L 197.949219 471.429688 L 186.753906 469.148438 L 168.789062 478.167969 C 168.789062 478.167969 171.335938 487.179688 177.734375 493.425781 Z M 238.933594 457.785156 L 220.582031 466.003906 L 209.820312 464.515625 L 213.363281 453.648438 L 230.074219 442.464844 C 230.074219 442.464844 236.65625 449.136719 238.933594 457.785156 Z M 212.726562 432.550781 L 210.59375 452.542969 L 203.894531 461.089844 L 196.285156 452.5625 L 195.035156 432.496094 C 195.035156 432.496094 204.109375 430.164062 212.726562 432.550781 " fill-opacity="1" fill-rule="evenodd"/><path fill="#5858e0" d="M 166.9375 418.007812 C 194.53125 397.589844 233.441406 403.40625 253.859375 431 C 274.273438 458.589844 268.464844 497.503906 240.867188 517.917969 C 213.273438 538.332031 174.363281 532.519531 153.953125 504.925781 C 133.53125 477.335938 139.347656 438.421875 166.9375 418.007812 Z M 177.875 432.785156 C 197.300781 418.410156 224.703125 422.503906 239.078125 441.929688 C 253.457031 461.363281 249.359375 488.761719 229.933594 503.140625 C 210.503906 517.515625 183.101562 513.417969 168.726562 493.988281 C 154.355469 474.5625 158.445312 447.160156 177.875 432.785156 " fill-opacity="1" fill-rule="evenodd"/><path fill="#5858e0" d="M 602.582031 437.730469 C 619.539062 425.183594 642.878906 427.429688 657.175781 442.164062 L 657.207031 442.140625 C 657.207031 442.140625 657.949219 442.890625 659.054688 444.238281 C 659.65625 444.941406 660.238281 445.675781 660.796875 446.433594 C 662.402344 448.601562 663.765625 450.871094 664.890625 453.222656 C 665.730469 454.933594 666.496094 456.792969 667.074219 458.75 C 672.226562 475.203125 666.742188 493.820312 652.097656 504.648438 C 633.617188 518.328125 607.558594 514.433594 593.878906 495.953125 C 580.203125 477.46875 584.097656 451.40625 602.582031 437.730469 Z M 636.160156 506.601562 L 634.027344 486.609375 L 627.328125 478.066406 L 619.71875 486.589844 L 618.46875 506.65625 C 618.46875 506.65625 627.542969 508.988281 636.160156 506.601562 Z M 592.148438 461.417969 L 610.589844 469.429688 L 621.335938 467.8125 L 617.671875 456.988281 L 600.832031 446 C 600.832031 446 594.324219 452.742188 592.148438 461.417969 Z M 653.75 496.355469 L 637.410156 484.636719 L 633.28125 474.589844 L 644.453125 472.179688 L 662.523438 480.992188 C 662.523438 480.992188 660.078125 490.035156 653.75 496.355469 Z M 601.167969 496.65625 L 617.375 484.753906 L 621.382812 474.65625 L 610.1875 472.378906 L 592.222656 481.398438 C 592.222656 481.398438 594.769531 490.414062 601.167969 496.65625 Z M 662.367188 461.015625 L 644.015625 469.238281 L 633.257812 467.742188 L 636.796875 456.875 L 653.507812 445.699219 C 653.507812 445.699219 660.089844 452.363281 662.367188 461.015625 Z M 636.160156 435.785156 L 634.027344 455.777344 L 627.328125 464.320312 L 619.71875 455.792969 L 618.46875 435.730469 C 618.46875 435.730469 627.542969 433.398438 636.160156 435.785156 " fill-opacity="1" fill-rule="evenodd"/><path fill="#5858e0" d="M 590.375 421.234375 C 617.964844 400.820312 656.875 406.640625 677.292969 434.226562 C 697.707031 461.820312 691.894531 500.730469 664.300781 521.144531 C 636.714844 541.5625 597.796875 535.746094 577.386719 508.160156 C 556.964844 480.5625 562.78125 441.65625 590.375 421.234375 Z M 601.308594 436.019531 C 620.734375 421.644531 648.136719 425.734375 662.511719 445.164062 C 676.890625 464.59375 672.792969 491.992188 653.367188 506.367188 C 633.9375 520.742188 606.535156 516.648438 592.160156 497.222656 C 577.789062 477.792969 581.878906 450.390625 601.308594 436.019531 " fill-opacity="1" fill-rule="evenodd"/></svg>