<svg width="1166" height="45" viewBox="0 0 1166 45" fill="none" xmlns="http://www.w3.org/2000/svg">
<rect y="15" width="1166" height="15" rx="7.5" fill="#F2F2F3"/>
<rect y="15" width="298" height="15" rx="7.5" fill="#5858E0"/>
<rect x="267" width="93" height="45" rx="22.5" fill="#5858E0"/>
<path d="M294.08 19.57C294.18 18.8767 294.373 18.27 294.66 17.75C294.947 17.2233 295.303 16.7867 295.73 16.44C296.163 16.0867 296.657 15.8233 297.21 15.65C297.77 15.47 298.37 15.38 299.01 15.38C299.677 15.38 300.277 15.4767 300.81 15.67C301.35 15.8567 301.81 16.12 302.19 16.46C302.57 16.7933 302.86 17.1867 303.06 17.64C303.267 18.0933 303.37 18.5833 303.37 19.11C303.37 19.57 303.317 19.9767 303.21 20.33C303.11 20.6767 302.963 20.98 302.77 21.24C302.577 21.5 302.337 21.72 302.05 21.9C301.763 22.08 301.44 22.23 301.08 22.35C301.947 22.6233 302.593 23.04 303.02 23.6C303.447 24.16 303.66 24.8633 303.66 25.71C303.66 26.43 303.527 27.0667 303.26 27.62C302.993 28.1733 302.633 28.64 302.18 29.02C301.727 29.3933 301.2 29.6767 300.6 29.87C300.007 30.0633 299.377 30.16 298.71 30.16C297.983 30.16 297.35 30.0767 296.81 29.91C296.27 29.7433 295.8 29.4967 295.4 29.17C295 28.8433 294.66 28.4433 294.38 27.97C294.1 27.4967 293.86 26.95 293.66 26.33L294.75 25.88C295.037 25.76 295.303 25.73 295.55 25.79C295.803 25.8433 295.987 25.9767 296.1 26.19C296.22 26.4233 296.35 26.6533 296.49 26.88C296.637 27.1067 296.81 27.31 297.01 27.49C297.21 27.6633 297.443 27.8067 297.71 27.92C297.983 28.0267 298.307 28.08 298.68 28.08C299.1 28.08 299.467 28.0133 299.78 27.88C300.093 27.74 300.353 27.56 300.56 27.34C300.773 27.12 300.93 26.8767 301.03 26.61C301.137 26.3367 301.19 26.0633 301.19 25.79C301.19 25.4433 301.153 25.13 301.08 24.85C301.007 24.5633 300.853 24.32 300.62 24.12C300.387 23.92 300.05 23.7633 299.61 23.65C299.177 23.5367 298.593 23.48 297.86 23.48V21.72C298.467 21.7133 298.97 21.6567 299.37 21.55C299.77 21.4433 300.087 21.2967 300.32 21.11C300.56 20.9167 300.727 20.6867 300.82 20.42C300.913 20.1533 300.96 19.86 300.96 19.54C300.96 18.86 300.77 18.3433 300.39 17.99C300.01 17.6367 299.503 17.46 298.87 17.46C298.577 17.46 298.307 17.5033 298.06 17.59C297.813 17.67 297.59 17.7867 297.39 17.94C297.197 18.0867 297.033 18.26 296.9 18.46C296.767 18.66 296.667 18.88 296.6 19.12C296.487 19.4267 296.337 19.63 296.15 19.73C295.97 19.83 295.713 19.8533 295.38 19.8L294.08 19.57ZM311.422 20.79L310.922 21.41C311.202 21.27 311.502 21.1633 311.822 21.09C312.148 21.01 312.498 20.97 312.872 20.97C313.418 20.97 313.948 21.06 314.462 21.24C314.982 21.42 315.438 21.6933 315.832 22.06C316.225 22.42 316.542 22.87 316.782 23.41C317.022 23.95 317.142 24.58 317.142 25.3C317.142 25.9733 317.018 26.6067 316.772 27.2C316.525 27.7867 316.178 28.3 315.732 28.74C315.285 29.18 314.745 29.5267 314.112 29.78C313.485 30.0333 312.792 30.16 312.032 30.16C311.258 30.16 310.565 30.0367 309.952 29.79C309.338 29.5433 308.815 29.2 308.382 28.76C307.948 28.3133 307.615 27.78 307.382 27.16C307.155 26.5333 307.042 25.84 307.042 25.08C307.042 24.4 307.178 23.7033 307.452 22.99C307.732 22.27 308.162 21.5233 308.742 20.75L312.192 16.12C312.312 15.96 312.485 15.8233 312.712 15.71C312.945 15.5967 313.212 15.54 313.512 15.54H315.712L311.422 20.79ZM311.982 28.14C312.375 28.14 312.735 28.0733 313.062 27.94C313.395 27.8067 313.678 27.62 313.912 27.38C314.152 27.14 314.338 26.86 314.472 26.54C314.605 26.2133 314.672 25.86 314.672 25.48C314.672 25.0667 314.608 24.6967 314.482 24.37C314.355 24.0367 314.175 23.7567 313.942 23.53C313.708 23.2967 313.428 23.12 313.102 23C312.775 22.88 312.415 22.82 312.022 22.82C311.628 22.82 311.272 22.8867 310.952 23.02C310.632 23.1533 310.358 23.34 310.132 23.58C309.905 23.8133 309.728 24.0933 309.602 24.42C309.475 24.74 309.412 25.0867 309.412 25.46C309.412 25.86 309.465 26.2267 309.572 26.56C309.685 26.8867 309.848 27.1667 310.062 27.4C310.282 27.6333 310.552 27.8167 310.872 27.95C311.192 28.0767 311.562 28.14 311.982 28.14ZM326.853 19.04C326.853 19.5867 326.76 20.08 326.573 20.52C326.393 20.96 326.15 21.3367 325.843 21.65C325.536 21.9567 325.18 22.1933 324.773 22.36C324.366 22.5267 323.943 22.61 323.503 22.61C323.023 22.61 322.58 22.5267 322.173 22.36C321.766 22.1933 321.413 21.9567 321.113 21.65C320.82 21.3367 320.59 20.96 320.423 20.52C320.256 20.08 320.173 19.5867 320.173 19.04C320.173 18.48 320.256 17.9733 320.423 17.52C320.59 17.0667 320.82 16.6833 321.113 16.37C321.413 16.0567 321.766 15.8167 322.173 15.65C322.58 15.4767 323.023 15.39 323.503 15.39C323.983 15.39 324.426 15.4767 324.833 15.65C325.246 15.8167 325.603 16.0567 325.903 16.37C326.203 16.6833 326.436 17.0667 326.603 17.52C326.77 17.9733 326.853 18.48 326.853 19.04ZM324.953 19.04C324.953 18.6533 324.913 18.33 324.833 18.07C324.76 17.81 324.656 17.6 324.523 17.44C324.396 17.28 324.243 17.1667 324.063 17.1C323.89 17.0267 323.703 16.99 323.503 16.99C323.303 16.99 323.116 17.0267 322.943 17.1C322.77 17.1667 322.62 17.28 322.493 17.44C322.373 17.6 322.276 17.81 322.203 18.07C322.13 18.33 322.093 18.6533 322.093 19.04C322.093 19.4133 322.13 19.7267 322.203 19.98C322.276 20.2267 322.373 20.4267 322.493 20.58C322.62 20.7333 322.77 20.8433 322.943 20.91C323.116 20.9767 323.303 21.01 323.503 21.01C323.703 21.01 323.89 20.9767 324.063 20.91C324.243 20.8433 324.396 20.7333 324.523 20.58C324.656 20.4267 324.76 20.2267 324.833 19.98C324.913 19.7267 324.953 19.4133 324.953 19.04ZM331.663 15.93C331.75 15.83 331.85 15.74 331.963 15.66C332.083 15.58 332.25 15.54 332.463 15.54H334.263L323.523 29.63C323.436 29.7367 323.333 29.8267 323.213 29.9C323.093 29.9667 322.946 30 322.773 30H320.933L331.663 15.93ZM335.023 26.6C335.023 27.1467 334.93 27.64 334.743 28.08C334.563 28.52 334.32 28.8967 334.013 29.21C333.706 29.5167 333.35 29.7567 332.943 29.93C332.536 30.0967 332.113 30.18 331.673 30.18C331.193 30.18 330.75 30.0967 330.343 29.93C329.936 29.7567 329.583 29.5167 329.283 29.21C328.99 28.8967 328.76 28.52 328.593 28.08C328.426 27.64 328.343 27.1467 328.343 26.6C328.343 26.04 328.426 25.5333 328.593 25.08C328.76 24.6267 328.99 24.2433 329.283 23.93C329.583 23.6167 329.936 23.3767 330.343 23.21C330.75 23.0367 331.193 22.95 331.673 22.95C332.153 22.95 332.596 23.0367 333.003 23.21C333.416 23.3767 333.77 23.6167 334.063 23.93C334.363 24.2433 334.596 24.6267 334.763 25.08C334.936 25.5333 335.023 26.04 335.023 26.6ZM333.113 26.6C333.113 26.2133 333.076 25.89 333.003 25.63C332.93 25.37 332.826 25.16 332.693 25C332.566 24.84 332.413 24.7267 332.233 24.66C332.06 24.5867 331.873 24.55 331.673 24.55C331.473 24.55 331.286 24.5867 331.113 24.66C330.94 24.7267 330.79 24.84 330.663 25C330.536 25.16 330.436 25.37 330.363 25.63C330.296 25.89 330.263 26.2133 330.263 26.6C330.263 26.9733 330.296 27.2867 330.363 27.54C330.436 27.7933 330.536 27.9967 330.663 28.15C330.79 28.3033 330.94 28.4133 331.113 28.48C331.286 28.5467 331.473 28.58 331.673 28.58C331.873 28.58 332.06 28.5467 332.233 28.48C332.413 28.4133 332.566 28.3033 332.693 28.15C332.826 27.9967 332.93 27.7933 333.003 27.54C333.076 27.2867 333.113 26.9733 333.113 26.6Z" fill="white"/>
</svg>
