<svg width="1166" height="45" viewBox="0 0 1166 45" fill="none" xmlns="http://www.w3.org/2000/svg">
<rect y="15" width="1166" height="15" rx="7.5" fill="#F2F2F3"/>
<rect y="15" width="862" height="15" rx="7.5" fill="#5858E0"/>
<rect x="847" width="93" height="45" rx="22.5" fill="#5858E0"/>
<path d="M878.8 28.23C879.207 28.23 879.563 28.1733 879.87 28.06C880.177 27.94 880.433 27.7767 880.64 27.57C880.853 27.3633 881.013 27.1167 881.12 26.83C881.227 26.5433 881.28 26.2333 881.28 25.9C881.28 25.1067 881.06 24.5067 880.62 24.1C880.18 23.6933 879.573 23.49 878.8 23.49C878.027 23.49 877.42 23.6933 876.98 24.1C876.54 24.5067 876.32 25.1067 876.32 25.9C876.32 26.2333 876.373 26.5433 876.48 26.83C876.587 27.1167 876.743 27.3633 876.95 27.57C877.163 27.7767 877.423 27.94 877.73 28.06C878.037 28.1733 878.393 28.23 878.8 28.23ZM878.8 17.24C878.433 17.24 878.117 17.2967 877.85 17.41C877.583 17.5233 877.36 17.6767 877.18 17.87C877.007 18.0567 876.877 18.2733 876.79 18.52C876.71 18.7667 876.67 19.0267 876.67 19.3C876.67 19.5867 876.703 19.8667 876.77 20.14C876.843 20.4067 876.963 20.6467 877.13 20.86C877.297 21.0667 877.517 21.2333 877.79 21.36C878.063 21.4867 878.4 21.55 878.8 21.55C879.2 21.55 879.537 21.4867 879.81 21.36C880.083 21.2333 880.303 21.0667 880.47 20.86C880.637 20.6467 880.753 20.4067 880.82 20.14C880.893 19.8667 880.93 19.5867 880.93 19.3C880.93 19.0267 880.887 18.7667 880.8 18.52C880.713 18.2733 880.583 18.0567 880.41 17.87C880.237 17.6767 880.017 17.5233 879.75 17.41C879.483 17.2967 879.167 17.24 878.8 17.24ZM881.24 22.46C882.12 22.7467 882.77 23.1867 883.19 23.78C883.61 24.3667 883.82 25.0867 883.82 25.94C883.82 26.58 883.697 27.16 883.45 27.68C883.21 28.2 882.87 28.6433 882.43 29.01C881.99 29.3767 881.46 29.66 880.84 29.86C880.227 30.06 879.547 30.16 878.8 30.16C878.053 30.16 877.37 30.06 876.75 29.86C876.137 29.66 875.61 29.3767 875.17 29.01C874.73 28.6433 874.387 28.2 874.14 27.68C873.9 27.16 873.78 26.58 873.78 25.94C873.78 25.0867 873.99 24.3667 874.41 23.78C874.83 23.1867 875.48 22.7467 876.36 22.46C875.66 22.1667 875.133 21.75 874.78 21.21C874.433 20.67 874.26 20.02 874.26 19.26C874.26 18.7133 874.37 18.2033 874.59 17.73C874.817 17.2567 875.13 16.8467 875.53 16.5C875.93 16.1467 876.407 15.8733 876.96 15.68C877.52 15.48 878.133 15.38 878.8 15.38C879.467 15.38 880.077 15.48 880.63 15.68C881.19 15.8733 881.67 16.1467 882.07 16.5C882.47 16.8467 882.78 17.2567 883 17.73C883.227 18.2033 883.34 18.7133 883.34 19.26C883.34 20.02 883.163 20.67 882.81 21.21C882.463 21.75 881.94 22.1667 881.24 22.46ZM896.552 28.15V30H888.552V28.15H891.482V19.72C891.482 19.3867 891.492 19.0433 891.512 18.69L889.432 20.43C889.312 20.5233 889.192 20.5833 889.072 20.61C888.958 20.63 888.848 20.63 888.742 20.61C888.642 20.59 888.552 20.5567 888.472 20.51C888.392 20.4567 888.332 20.4 888.292 20.34L887.512 19.27L891.922 15.52H893.952V28.15H896.552ZM906.853 19.04C906.853 19.5867 906.76 20.08 906.573 20.52C906.393 20.96 906.15 21.3367 905.843 21.65C905.536 21.9567 905.18 22.1933 904.773 22.36C904.366 22.5267 903.943 22.61 903.503 22.61C903.023 22.61 902.58 22.5267 902.173 22.36C901.766 22.1933 901.413 21.9567 901.113 21.65C900.82 21.3367 900.59 20.96 900.423 20.52C900.256 20.08 900.173 19.5867 900.173 19.04C900.173 18.48 900.256 17.9733 900.423 17.52C900.59 17.0667 900.82 16.6833 901.113 16.37C901.413 16.0567 901.766 15.8167 902.173 15.65C902.58 15.4767 903.023 15.39 903.503 15.39C903.983 15.39 904.426 15.4767 904.833 15.65C905.246 15.8167 905.603 16.0567 905.903 16.37C906.203 16.6833 906.436 17.0667 906.603 17.52C906.77 17.9733 906.853 18.48 906.853 19.04ZM904.953 19.04C904.953 18.6533 904.913 18.33 904.833 18.07C904.76 17.81 904.656 17.6 904.523 17.44C904.396 17.28 904.243 17.1667 904.063 17.1C903.89 17.0267 903.703 16.99 903.503 16.99C903.303 16.99 903.116 17.0267 902.943 17.1C902.77 17.1667 902.62 17.28 902.493 17.44C902.373 17.6 902.276 17.81 902.203 18.07C902.13 18.33 902.093 18.6533 902.093 19.04C902.093 19.4133 902.13 19.7267 902.203 19.98C902.276 20.2267 902.373 20.4267 902.493 20.58C902.62 20.7333 902.77 20.8433 902.943 20.91C903.116 20.9767 903.303 21.01 903.503 21.01C903.703 21.01 903.89 20.9767 904.063 20.91C904.243 20.8433 904.396 20.7333 904.523 20.58C904.656 20.4267 904.76 20.2267 904.833 19.98C904.913 19.7267 904.953 19.4133 904.953 19.04ZM911.663 15.93C911.75 15.83 911.85 15.74 911.963 15.66C912.083 15.58 912.25 15.54 912.463 15.54H914.263L903.523 29.63C903.436 29.7367 903.333 29.8267 903.213 29.9C903.093 29.9667 902.946 30 902.773 30H900.933L911.663 15.93ZM915.023 26.6C915.023 27.1467 914.93 27.64 914.743 28.08C914.563 28.52 914.32 28.8967 914.013 29.21C913.706 29.5167 913.35 29.7567 912.943 29.93C912.536 30.0967 912.113 30.18 911.673 30.18C911.193 30.18 910.75 30.0967 910.343 29.93C909.936 29.7567 909.583 29.5167 909.283 29.21C908.99 28.8967 908.76 28.52 908.593 28.08C908.426 27.64 908.343 27.1467 908.343 26.6C908.343 26.04 908.426 25.5333 908.593 25.08C908.76 24.6267 908.99 24.2433 909.283 23.93C909.583 23.6167 909.936 23.3767 910.343 23.21C910.75 23.0367 911.193 22.95 911.673 22.95C912.153 22.95 912.596 23.0367 913.003 23.21C913.416 23.3767 913.77 23.6167 914.063 23.93C914.363 24.2433 914.596 24.6267 914.763 25.08C914.936 25.5333 915.023 26.04 915.023 26.6ZM913.113 26.6C913.113 26.2133 913.076 25.89 913.003 25.63C912.93 25.37 912.826 25.16 912.693 25C912.566 24.84 912.413 24.7267 912.233 24.66C912.06 24.5867 911.873 24.55 911.673 24.55C911.473 24.55 911.286 24.5867 911.113 24.66C910.94 24.7267 910.79 24.84 910.663 25C910.536 25.16 910.436 25.37 910.363 25.63C910.296 25.89 910.263 26.2133 910.263 26.6C910.263 26.9733 910.296 27.2867 910.363 27.54C910.436 27.7933 910.536 27.9967 910.663 28.15C910.79 28.3033 910.94 28.4133 911.113 28.48C911.286 28.5467 911.473 28.58 911.673 28.58C911.873 28.58 912.06 28.5467 912.233 28.48C912.413 28.4133 912.566 28.3033 912.693 28.15C912.826 27.9967 912.93 27.7933 913.003 27.54C913.076 27.2867 913.113 26.9733 913.113 26.6Z" fill="white"/>
</svg>
