<svg width="1166" height="45" viewBox="0 0 1166 45" fill="none" xmlns="http://www.w3.org/2000/svg">
<rect y="15" width="1166" height="15" rx="7.5" fill="#F2F2F3"/>
<rect y="15" width="644" height="15" rx="7.5" fill="#5858E0"/>
<rect x="637" width="93" height="45" rx="22.5" fill="#5858E0"/>
<path d="M668.22 20.79L667.72 21.41C668 21.27 668.3 21.1633 668.62 21.09C668.947 21.01 669.297 20.97 669.67 20.97C670.217 20.97 670.747 21.06 671.26 21.24C671.78 21.42 672.237 21.6933 672.63 22.06C673.023 22.42 673.34 22.87 673.58 23.41C673.82 23.95 673.94 24.58 673.94 25.3C673.94 25.9733 673.817 26.6067 673.57 27.2C673.323 27.7867 672.977 28.3 672.53 28.74C672.083 29.18 671.543 29.5267 670.91 29.78C670.283 30.0333 669.59 30.16 668.83 30.16C668.057 30.16 667.363 30.0367 666.75 29.79C666.137 29.5433 665.613 29.2 665.18 28.76C664.747 28.3133 664.413 27.78 664.18 27.16C663.953 26.5333 663.84 25.84 663.84 25.08C663.84 24.4 663.977 23.7033 664.25 22.99C664.53 22.27 664.96 21.5233 665.54 20.75L668.99 16.12C669.11 15.96 669.283 15.8233 669.51 15.71C669.743 15.5967 670.01 15.54 670.31 15.54H672.51L668.22 20.79ZM668.78 28.14C669.173 28.14 669.533 28.0733 669.86 27.94C670.193 27.8067 670.477 27.62 670.71 27.38C670.95 27.14 671.137 26.86 671.27 26.54C671.403 26.2133 671.47 25.86 671.47 25.48C671.47 25.0667 671.407 24.6967 671.28 24.37C671.153 24.0367 670.973 23.7567 670.74 23.53C670.507 23.2967 670.227 23.12 669.9 23C669.573 22.88 669.213 22.82 668.82 22.82C668.427 22.82 668.07 22.8867 667.75 23.02C667.43 23.1533 667.157 23.34 666.93 23.58C666.703 23.8133 666.527 24.0933 666.4 24.42C666.273 24.74 666.21 25.0867 666.21 25.46C666.21 25.86 666.263 26.2267 666.37 26.56C666.483 26.8867 666.647 27.1667 666.86 27.4C667.08 27.6333 667.35 27.8167 667.67 27.95C667.99 28.0767 668.36 28.14 668.78 28.14ZM686.552 28.15V30H678.552V28.15H681.482V19.72C681.482 19.3867 681.492 19.0433 681.512 18.69L679.432 20.43C679.312 20.5233 679.192 20.5833 679.072 20.61C678.958 20.63 678.848 20.63 678.742 20.61C678.642 20.59 678.552 20.5567 678.472 20.51C678.392 20.4567 678.332 20.4 678.292 20.34L677.512 19.27L681.922 15.52H683.952V28.15H686.552ZM696.853 19.04C696.853 19.5867 696.76 20.08 696.573 20.52C696.393 20.96 696.15 21.3367 695.843 21.65C695.536 21.9567 695.18 22.1933 694.773 22.36C694.366 22.5267 693.943 22.61 693.503 22.61C693.023 22.61 692.58 22.5267 692.173 22.36C691.766 22.1933 691.413 21.9567 691.113 21.65C690.82 21.3367 690.59 20.96 690.423 20.52C690.256 20.08 690.173 19.5867 690.173 19.04C690.173 18.48 690.256 17.9733 690.423 17.52C690.59 17.0667 690.82 16.6833 691.113 16.37C691.413 16.0567 691.766 15.8167 692.173 15.65C692.58 15.4767 693.023 15.39 693.503 15.39C693.983 15.39 694.426 15.4767 694.833 15.65C695.246 15.8167 695.603 16.0567 695.903 16.37C696.203 16.6833 696.436 17.0667 696.603 17.52C696.77 17.9733 696.853 18.48 696.853 19.04ZM694.953 19.04C694.953 18.6533 694.913 18.33 694.833 18.07C694.76 17.81 694.656 17.6 694.523 17.44C694.396 17.28 694.243 17.1667 694.063 17.1C693.89 17.0267 693.703 16.99 693.503 16.99C693.303 16.99 693.116 17.0267 692.943 17.1C692.77 17.1667 692.62 17.28 692.493 17.44C692.373 17.6 692.276 17.81 692.203 18.07C692.13 18.33 692.093 18.6533 692.093 19.04C692.093 19.4133 692.13 19.7267 692.203 19.98C692.276 20.2267 692.373 20.4267 692.493 20.58C692.62 20.7333 692.77 20.8433 692.943 20.91C693.116 20.9767 693.303 21.01 693.503 21.01C693.703 21.01 693.89 20.9767 694.063 20.91C694.243 20.8433 694.396 20.7333 694.523 20.58C694.656 20.4267 694.76 20.2267 694.833 19.98C694.913 19.7267 694.953 19.4133 694.953 19.04ZM701.663 15.93C701.75 15.83 701.85 15.74 701.963 15.66C702.083 15.58 702.25 15.54 702.463 15.54H704.263L693.523 29.63C693.436 29.7367 693.333 29.8267 693.213 29.9C693.093 29.9667 692.946 30 692.773 30H690.933L701.663 15.93ZM705.023 26.6C705.023 27.1467 704.93 27.64 704.743 28.08C704.563 28.52 704.32 28.8967 704.013 29.21C703.706 29.5167 703.35 29.7567 702.943 29.93C702.536 30.0967 702.113 30.18 701.673 30.18C701.193 30.18 700.75 30.0967 700.343 29.93C699.936 29.7567 699.583 29.5167 699.283 29.21C698.99 28.8967 698.76 28.52 698.593 28.08C698.426 27.64 698.343 27.1467 698.343 26.6C698.343 26.04 698.426 25.5333 698.593 25.08C698.76 24.6267 698.99 24.2433 699.283 23.93C699.583 23.6167 699.936 23.3767 700.343 23.21C700.75 23.0367 701.193 22.95 701.673 22.95C702.153 22.95 702.596 23.0367 703.003 23.21C703.416 23.3767 703.77 23.6167 704.063 23.93C704.363 24.2433 704.596 24.6267 704.763 25.08C704.936 25.5333 705.023 26.04 705.023 26.6ZM703.113 26.6C703.113 26.2133 703.076 25.89 703.003 25.63C702.93 25.37 702.826 25.16 702.693 25C702.566 24.84 702.413 24.7267 702.233 24.66C702.06 24.5867 701.873 24.55 701.673 24.55C701.473 24.55 701.286 24.5867 701.113 24.66C700.94 24.7267 700.79 24.84 700.663 25C700.536 25.16 700.436 25.37 700.363 25.63C700.296 25.89 700.263 26.2133 700.263 26.6C700.263 26.9733 700.296 27.2867 700.363 27.54C700.436 27.7933 700.536 27.9967 700.663 28.15C700.79 28.3033 700.94 28.4133 701.113 28.48C701.286 28.5467 701.473 28.58 701.673 28.58C701.873 28.58 702.06 28.5467 702.233 28.48C702.413 28.4133 702.566 28.3033 702.693 28.15C702.826 27.9967 702.93 27.7933 703.003 27.54C703.076 27.2867 703.113 26.9733 703.113 26.6Z" fill="white"/>
</svg>
