<svg width="1170" height="45" viewBox="0 0 1170 45" fill="none" xmlns="http://www.w3.org/2000/svg">
<rect y="15" width="1166" height="15" rx="7.5" fill="#F2F2F3"/>
<rect y="15" width="1086" height="15" rx="7.5" fill="#5858E0"/>
<rect x="1077" width="93" height="45" rx="22.5" fill="#5858E0"/>
<path d="M1106.3 19.88C1106.3 20.6867 1106.51 21.3033 1106.92 21.73C1107.34 22.15 1107.93 22.36 1108.7 22.36C1109.1 22.36 1109.46 22.2967 1109.77 22.17C1110.08 22.0433 1110.35 21.87 1110.56 21.65C1110.77 21.43 1110.93 21.17 1111.04 20.87C1111.15 20.57 1111.21 20.2467 1111.21 19.9C1111.21 19.5067 1111.15 19.1567 1111.03 18.85C1110.91 18.5367 1110.74 18.2733 1110.52 18.06C1110.3 17.8467 1110.04 17.6833 1109.73 17.57C1109.43 17.4567 1109.1 17.4 1108.74 17.4C1108.37 17.4 1108.03 17.4633 1107.73 17.59C1107.43 17.71 1107.17 17.88 1106.96 18.1C1106.75 18.32 1106.58 18.5833 1106.47 18.89C1106.36 19.19 1106.3 19.52 1106.3 19.88ZM1109.58 24.39C1109.69 24.25 1109.8 24.1133 1109.9 23.98C1110 23.8467 1110.1 23.7133 1110.19 23.58C1109.86 23.7933 1109.49 23.9567 1109.09 24.07C1108.69 24.1767 1108.27 24.23 1107.83 24.23C1107.33 24.23 1106.84 24.1433 1106.36 23.97C1105.88 23.7967 1105.45 23.5367 1105.08 23.19C1104.71 22.8367 1104.4 22.4033 1104.17 21.89C1103.94 21.37 1103.83 20.7633 1103.83 20.07C1103.83 19.4233 1103.95 18.8167 1104.19 18.25C1104.43 17.6833 1104.77 17.1867 1105.2 16.76C1105.63 16.3333 1106.15 15.9967 1106.76 15.75C1107.37 15.5033 1108.04 15.38 1108.77 15.38C1109.51 15.38 1110.17 15.4967 1110.76 15.73C1111.35 15.9633 1111.86 16.29 1112.27 16.71C1112.69 17.13 1113.01 17.6333 1113.23 18.22C1113.46 18.8067 1113.57 19.45 1113.57 20.15C1113.57 20.5967 1113.53 21.02 1113.45 21.42C1113.38 21.82 1113.27 22.2067 1113.13 22.58C1112.99 22.9467 1112.82 23.3067 1112.62 23.66C1112.42 24.0133 1112.2 24.3633 1111.95 24.71L1108.64 29.43C1108.53 29.59 1108.36 29.7267 1108.13 29.84C1107.9 29.9467 1107.65 30 1107.36 30H1105.09L1109.58 24.39ZM1119.5 19.88C1119.5 20.6867 1119.71 21.3033 1120.12 21.73C1120.54 22.15 1121.13 22.36 1121.9 22.36C1122.3 22.36 1122.66 22.2967 1122.97 22.17C1123.28 22.0433 1123.55 21.87 1123.76 21.65C1123.97 21.43 1124.13 21.17 1124.24 20.87C1124.35 20.57 1124.41 20.2467 1124.41 19.9C1124.41 19.5067 1124.35 19.1567 1124.23 18.85C1124.11 18.5367 1123.94 18.2733 1123.72 18.06C1123.5 17.8467 1123.24 17.6833 1122.93 17.57C1122.63 17.4567 1122.3 17.4 1121.94 17.4C1121.57 17.4 1121.23 17.4633 1120.93 17.59C1120.63 17.71 1120.37 17.88 1120.16 18.1C1119.95 18.32 1119.78 18.5833 1119.67 18.89C1119.56 19.19 1119.5 19.52 1119.5 19.88ZM1122.78 24.39C1122.89 24.25 1123 24.1133 1123.1 23.98C1123.2 23.8467 1123.3 23.7133 1123.39 23.58C1123.06 23.7933 1122.69 23.9567 1122.29 24.07C1121.89 24.1767 1121.47 24.23 1121.03 24.23C1120.53 24.23 1120.04 24.1433 1119.56 23.97C1119.08 23.7967 1118.65 23.5367 1118.28 23.19C1117.91 22.8367 1117.6 22.4033 1117.37 21.89C1117.14 21.37 1117.03 20.7633 1117.03 20.07C1117.03 19.4233 1117.15 18.8167 1117.39 18.25C1117.63 17.6833 1117.97 17.1867 1118.4 16.76C1118.83 16.3333 1119.35 15.9967 1119.96 15.75C1120.57 15.5033 1121.24 15.38 1121.97 15.38C1122.71 15.38 1123.37 15.4967 1123.96 15.73C1124.55 15.9633 1125.06 16.29 1125.47 16.71C1125.89 17.13 1126.21 17.6333 1126.43 18.22C1126.66 18.8067 1126.77 19.45 1126.77 20.15C1126.77 20.5967 1126.73 21.02 1126.65 21.42C1126.58 21.82 1126.47 22.2067 1126.33 22.58C1126.19 22.9467 1126.02 23.3067 1125.82 23.66C1125.62 24.0133 1125.4 24.3633 1125.15 24.71L1121.84 29.43C1121.73 29.59 1121.56 29.7267 1121.33 29.84C1121.1 29.9467 1120.85 30 1120.56 30H1118.29L1122.78 24.39ZM1136.85 19.04C1136.85 19.5867 1136.76 20.08 1136.57 20.52C1136.39 20.96 1136.15 21.3367 1135.84 21.65C1135.54 21.9567 1135.18 22.1933 1134.77 22.36C1134.37 22.5267 1133.94 22.61 1133.5 22.61C1133.02 22.61 1132.58 22.5267 1132.17 22.36C1131.77 22.1933 1131.41 21.9567 1131.11 21.65C1130.82 21.3367 1130.59 20.96 1130.42 20.52C1130.26 20.08 1130.17 19.5867 1130.17 19.04C1130.17 18.48 1130.26 17.9733 1130.42 17.52C1130.59 17.0667 1130.82 16.6833 1131.11 16.37C1131.41 16.0567 1131.77 15.8167 1132.17 15.65C1132.58 15.4767 1133.02 15.39 1133.5 15.39C1133.98 15.39 1134.43 15.4767 1134.83 15.65C1135.25 15.8167 1135.6 16.0567 1135.9 16.37C1136.2 16.6833 1136.44 17.0667 1136.6 17.52C1136.77 17.9733 1136.85 18.48 1136.85 19.04ZM1134.95 19.04C1134.95 18.6533 1134.91 18.33 1134.83 18.07C1134.76 17.81 1134.66 17.6 1134.52 17.44C1134.4 17.28 1134.24 17.1667 1134.06 17.1C1133.89 17.0267 1133.7 16.99 1133.5 16.99C1133.3 16.99 1133.12 17.0267 1132.94 17.1C1132.77 17.1667 1132.62 17.28 1132.49 17.44C1132.37 17.6 1132.28 17.81 1132.2 18.07C1132.13 18.33 1132.09 18.6533 1132.09 19.04C1132.09 19.4133 1132.13 19.7267 1132.2 19.98C1132.28 20.2267 1132.37 20.4267 1132.49 20.58C1132.62 20.7333 1132.77 20.8433 1132.94 20.91C1133.12 20.9767 1133.3 21.01 1133.5 21.01C1133.7 21.01 1133.89 20.9767 1134.06 20.91C1134.24 20.8433 1134.4 20.7333 1134.52 20.58C1134.66 20.4267 1134.76 20.2267 1134.83 19.98C1134.91 19.7267 1134.95 19.4133 1134.95 19.04ZM1141.66 15.93C1141.75 15.83 1141.85 15.74 1141.96 15.66C1142.08 15.58 1142.25 15.54 1142.46 15.54H1144.26L1133.52 29.63C1133.44 29.7367 1133.33 29.8267 1133.21 29.9C1133.09 29.9667 1132.95 30 1132.77 30H1130.93L1141.66 15.93ZM1145.02 26.6C1145.02 27.1467 1144.93 27.64 1144.74 28.08C1144.56 28.52 1144.32 28.8967 1144.01 29.21C1143.71 29.5167 1143.35 29.7567 1142.94 29.93C1142.54 30.0967 1142.11 30.18 1141.67 30.18C1141.19 30.18 1140.75 30.0967 1140.34 29.93C1139.94 29.7567 1139.58 29.5167 1139.28 29.21C1138.99 28.8967 1138.76 28.52 1138.59 28.08C1138.43 27.64 1138.34 27.1467 1138.34 26.6C1138.34 26.04 1138.43 25.5333 1138.59 25.08C1138.76 24.6267 1138.99 24.2433 1139.28 23.93C1139.58 23.6167 1139.94 23.3767 1140.34 23.21C1140.75 23.0367 1141.19 22.95 1141.67 22.95C1142.15 22.95 1142.6 23.0367 1143 23.21C1143.42 23.3767 1143.77 23.6167 1144.06 23.93C1144.36 24.2433 1144.6 24.6267 1144.76 25.08C1144.94 25.5333 1145.02 26.04 1145.02 26.6ZM1143.11 26.6C1143.11 26.2133 1143.08 25.89 1143 25.63C1142.93 25.37 1142.83 25.16 1142.69 25C1142.57 24.84 1142.41 24.7267 1142.23 24.66C1142.06 24.5867 1141.87 24.55 1141.67 24.55C1141.47 24.55 1141.29 24.5867 1141.11 24.66C1140.94 24.7267 1140.79 24.84 1140.66 25C1140.54 25.16 1140.44 25.37 1140.36 25.63C1140.3 25.89 1140.26 26.2133 1140.26 26.6C1140.26 26.9733 1140.3 27.2867 1140.36 27.54C1140.44 27.7933 1140.54 27.9967 1140.66 28.15C1140.79 28.3033 1140.94 28.4133 1141.11 28.48C1141.29 28.5467 1141.47 28.58 1141.67 28.58C1141.87 28.58 1142.06 28.5467 1142.23 28.48C1142.41 28.4133 1142.57 28.3033 1142.69 28.15C1142.83 27.9967 1142.93 27.7933 1143 27.54C1143.08 27.2867 1143.11 26.9733 1143.11 26.6Z" fill="white"/>
</svg>
