<svg xmlns="http://www.w3.org/2000/svg" xmlns:xlink="http://www.w3.org/1999/xlink" width="1080" zoomAndPan="magnify" viewBox="0 0 810 809.999993" height="1080" preserveAspectRatio="xMidYMid meet" version="1.0"><defs><clipPath id="d14e48f36b"><path d="M 145 118 L 665 118 L 665 692.242188 L 145 692.242188 Z M 145 118 " clip-rule="nonzero"/></clipPath></defs><g clip-path="url(#d14e48f36b)"><path fill="#5858e0" d="M 627.371094 422.195312 C 593.503906 554.402344 518.691406 638.664062 405.003906 672.683594 C 291.464844 638.710938 216.695312 554.625 182.757812 422.710938 C 161.492188 340.066406 163.734375 263.253906 165.230469 238.300781 C 271.378906 234.945312 359.945312 172.351562 405.015625 139.648438 C 449.8125 172.035156 538.621094 234.929688 644.765625 238.296875 C 646.269531 263.175781 648.523438 339.621094 627.371094 422.195312 Z M 663.128906 227.933594 C 662.636719 223.058594 658.535156 219.351562 653.636719 219.351562 C 547.730469 219.351562 460.550781 156.269531 413.710938 122.378906 L 410.597656 120.128906 C 407.253906 117.714844 402.738281 117.71875 399.398438 120.140625 L 397 121.882812 C 353.449219 153.519531 262.820312 219.351562 156.355469 219.351562 C 151.457031 219.351562 147.351562 223.058594 146.859375 227.933594 C 146.46875 231.789062 137.621094 323.449219 164.132812 426.933594 C 199.554688 565.195312 281.925781 656.789062 402.339844 691.796875 C 403.210938 692.050781 404.109375 692.175781 405.003906 692.175781 C 405.902344 692.175781 406.800781 692.050781 407.667969 691.796875 C 528.078125 656.789062 610.441406 565.195312 645.859375 426.933594 C 672.371094 323.449219 663.519531 231.789062 663.128906 227.933594 " fill-opacity="1" fill-rule="nonzero"/></g><path fill="#5858e0" d="M 510.832031 326.625 L 390.222656 483.652344 C 387.078125 487.75 382.40625 490.402344 377.273438 490.992188 C 376.542969 491.074219 375.816406 491.117188 375.085938 491.117188 C 370.699219 491.117188 366.421875 489.605469 362.996094 486.796875 L 302.226562 437.046875 C 294.070312 430.367188 292.871094 418.34375 299.546875 410.1875 C 306.226562 402.035156 318.253906 400.828125 326.410156 407.507812 L 371.941406 444.785156 L 480.550781 303.371094 C 486.972656 295.011719 498.953125 293.433594 507.320312 299.859375 C 515.679688 306.285156 517.253906 318.265625 510.832031 326.625 Z M 405.003906 195.191406 C 366.921875 222.65625 297.636719 269.496094 214.253906 274.601562 C 212.054688 333.0625 216.039062 559.734375 405.003906 618.152344 C 593.945312 559.734375 597.9375 333.0625 595.757812 274.601562 C 512.359375 269.457031 442.882812 222.464844 405.003906 195.191406 " fill-opacity="1" fill-rule="nonzero"/></svg>